<?xml version="1.0" standalone="no"?>
<!DOCTYPE svg PUBLIC "-//W3C//DTD SVG 20010904//EN"
 "http://www.w3.org/TR/2001/REC-SVG-20010904/DTD/svg10.dtd">
<svg version="1.0" xmlns="http://www.w3.org/2000/svg"
 width="512.000000pt" height="512.000000pt" viewBox="0 0 512.000000 512.000000"
 preserveAspectRatio="xMidYMid meet">
<metadata>
Created by potrace 1.15, written by Peter Selinger 2001-2017
</metadata>
<g transform="translate(0.000000,512.000000) scale(0.100000,-0.100000)"
fill="#000000" stroke="none">
<path d="M2460 4265 l0 -855 90 0 90 0 2 391 3 390 145 49 c198 66 249 75 341
61 41 -7 155 -34 254 -61 238 -65 301 -74 405 -60 45 6 88 14 96 17 12 4 14
65 14 389 0 211 -2 384 -4 384 -2 0 -23 -7 -47 -16 -28 -10 -77 -16 -134 -16
-92 0 -96 1 -435 92 -63 17 -147 34 -187 37 -104 8 -250 -17 -391 -68 -29 -10
-55 -19 -57 -19 -3 0 -5 32 -5 70 l0 70 -90 0 -90 0 0 -855z"/>
<path d="M1230 3050 l0 -220 -415 0 -415 0 0 -1415 0 -1415 735 0 735 0 0 190
0 190 680 0 680 0 0 -190 0 -190 745 0 745 0 0 1415 0 1415 -415 0 -415 0 0
220 0 220 -1330 0 -1330 0 0 -220z m1442 -835 c151 -31 261 -114 318 -238 51
-112 57 -102 -73 -126 -63 -11 -118 -21 -124 -21 -5 0 -18 18 -28 40 -81 180
-381 202 -520 38 -89 -105 -117 -336 -60 -503 78 -227 326 -293 569 -151 l47
27 -3 77 -3 77 -142 3 -143 3 0 99 0 100 268 -2 267 -3 3 -237 2 -236 -39 -34
c-87 -75 -269 -144 -409 -157 -342 -30 -580 118 -673 419 -32 101 -34 310 -5
410 63 217 219 371 419 415 84 18 240 18 329 0z m1299 1 c194 -42 342 -177
405 -371 35 -107 44 -290 20 -414 -42 -226 -192 -391 -405 -446 -83 -21 -264
-21 -346 0 -96 25 -184 74 -250 140 -116 116 -166 256 -166 465 0 229 43 351
171 481 82 83 149 121 254 144 81 18 235 18 317 1z m-2773 -413 l247 -403 3
405 2 405 115 0 115 0 0 -610 0 -611 -127 3 -128 3 -240 389 -240 389 -3 -391
-2 -392 -115 0 -115 0 0 610 0 611 121 -3 121 -3 246 -402z"/>
<path d="M3713 2005 c-97 -31 -176 -114 -209 -220 -22 -70 -29 -230 -14 -307
25 -128 91 -222 190 -271 61 -29 179 -35 249 -12 70 23 143 92 180 168 73 149
60 396 -27 529 -28 44 -109 99 -168 116 -53 15 -147 14 -201 -3z"/>
</g>
</svg>
